<?xml version="1.0" encoding="UTF-8"?> <svg xmlns="http://www.w3.org/2000/svg" width="119" height="40" viewBox="0 0 119 40" fill="none"><path d="M8.23368 9.37273C7.998 7.53971 9.42587 5.9165 11.274 5.9165H28.8273C30.6754 5.9165 32.1033 7.53971 31.8676 9.37273L30.4488 20.4079C30.2522 21.9372 28.9503 23.0824 27.4085 23.0824H12.6928C11.151 23.0824 9.84911 21.9372 9.65249 20.4079L8.23368 9.37273Z" fill="url(#paint0_linear_109_1081)"></path><path d="M6.69418 12.4734C6.42637 10.3904 8.04894 8.5459 10.1491 8.5459H30.096C32.1961 8.5459 33.8187 10.3904 33.5509 12.4734L31.9386 25.0134C31.7152 26.7512 30.2358 28.0526 28.4837 28.0526H11.7614C10.0093 28.0526 8.52989 26.7512 8.30646 25.0134L6.69418 12.4734Z" fill="url(#paint1_linear_109_1081)"></path><path d="M4.64827 15.5363C4.40481 13.6427 5.87987 11.9658 7.78908 11.9658H32.256C34.1652 11.9658 35.6403 13.6427 35.3968 15.5363L33.3611 31.3696C33.158 32.9494 31.8131 34.1325 30.2203 34.1325H9.8248C8.23201 34.1325 6.8871 32.9494 6.68399 31.3696L4.64827 15.5363Z" fill="url(#paint2_linear_109_1081)"></path><path d="M105.333 22.8983C105.333 19.1158 108.06 16.5122 111.818 16.5122C115.576 16.5122 118.302 19.1158 118.302 22.8983C118.302 26.6809 115.576 29.2845 111.818 29.2845C108.06 29.2845 105.333 26.6809 105.333 22.8983ZM108.33 22.8983C108.33 25.1089 109.755 26.6072 111.818 26.6072C113.881 26.6072 115.306 25.1089 115.306 22.8983C115.306 20.6878 113.881 19.1895 111.818 19.1895C109.755 19.1895 108.33 20.6878 108.33 22.8983Z" fill="#101828"></path><path d="M96.8789 16.8559H98.6228V15.3821C98.6228 12.0908 100.367 10.7153 102.995 10.7153C103.462 10.7153 104.026 10.7399 104.542 10.8381V13.3926H103.486C101.963 13.3926 101.595 14.1786 101.595 15.3821V16.8559H104.493V19.3612H101.595V28.9895H98.6228V19.3612H96.8789V16.8559Z" fill="#101828"></path><path d="M93.5258 28.9895H90.5292V19.3611H88.1958V16.8558H90.5292V13.0732H93.5258V16.8558H95.8837V19.3611H93.5258V28.9895Z" fill="#101828"></path><path d="M86.8913 16.8067V19.5822H85.7861C83.6246 19.5822 82.2737 20.7366 82.2737 23.0946V28.9895H79.2771V16.8804H82.1017L82.2737 18.6489C82.7895 17.4453 83.9439 16.6348 85.565 16.6348C85.9826 16.6348 86.4001 16.6839 86.8913 16.8067Z" fill="#101828"></path><path d="M63.9331 22.8983C63.9331 19.1158 66.6595 16.5122 70.4175 16.5122C74.1755 16.5122 76.9019 19.1158 76.9019 22.8983C76.9019 26.6809 74.1755 29.2845 70.4175 29.2845C66.6595 29.2845 63.9331 26.6809 63.9331 22.8983ZM66.9297 22.8983C66.9297 25.1089 68.3543 26.6072 70.4175 26.6072C72.4807 26.6072 73.9053 25.1089 73.9053 22.8983C73.9053 20.6878 72.4807 19.1895 70.4175 19.1895C68.3543 19.1895 66.9297 20.6878 66.9297 22.8983Z" fill="#101828"></path><path d="M57.0984 22.7999H53.1439V28.9895H50V11.0347H57.0984C60.7091 11.0347 63.0425 13.3926 63.0425 16.905C63.0425 20.3683 60.6845 22.7999 57.0984 22.7999ZM56.4844 13.8347H53.1439V19.9998H56.4353C58.5967 19.9998 59.7511 18.8454 59.7511 16.8804C59.7511 14.9155 58.5722 13.8347 56.4844 13.8347Z" fill="#101828"></path><defs><linearGradient id="paint0_linear_109_1081" x1="20.0506" y1="22.523" x2="20.0506" y2="5.90119" gradientUnits="userSpaceOnUse"><stop stop-color="#02173B"></stop><stop offset="1" stop-color="#5AAFFF"></stop></linearGradient><linearGradient id="paint1_linear_109_1081" x1="20.1225" y1="27.4169" x2="20.1225" y2="8.5285" gradientUnits="userSpaceOnUse"><stop stop-color="#0A2E72"></stop><stop offset="1" stop-color="#5AAFFF"></stop></linearGradient><linearGradient id="paint2_linear_109_1081" x1="20.0225" y1="11.9817" x2="20.0225" y2="34.1167" gradientUnits="userSpaceOnUse"><stop stop-color="#77BFFF"></stop><stop offset="1" stop-color="#1A7BFF"></stop></linearGradient></defs></svg> 